<svg width="164" height="76" viewBox="0 0 164 76" fill="none" xmlns="http://www.w3.org/2000/svg">
<path d="M1.692 68.628C1.62 66.252 1.584 63.972 1.584 61.788C1.584 57.852 1.704 54.288 1.944 51.096C2.184 47.904 2.532 45.192 2.988 42.96C3.204 41.928 3.504 40.932 3.888 39.972C4.296 39.012 4.86 38.232 5.58 37.632C6.324 37.008 7.296 36.696 8.496 36.696C9.672 36.696 10.668 37.008 11.484 37.632C12.3 38.232 12.96 38.964 13.464 39.828C13.992 40.692 14.376 41.52 14.616 42.312C15.24 44.184 15.768 46.056 16.2 47.928C16.632 49.8 17.016 51.588 17.352 53.292C17.592 52.044 17.868 50.736 18.18 49.368C18.492 47.976 18.804 46.668 19.116 45.444C19.428 44.196 19.716 43.164 19.98 42.348C21.204 38.58 23.088 36.696 25.632 36.696C27.048 36.696 28.248 37.212 29.232 38.244C30.216 39.252 30.936 40.716 31.392 42.636C31.608 43.5 31.824 44.76 32.04 46.416C32.28 48.072 32.496 50.04 32.688 52.32C32.904 54.576 33.084 57.072 33.228 59.808C33.396 62.544 33.528 65.448 33.624 68.52L27.288 68.376C27.288 67.104 27.252 65.628 27.18 63.948C27.132 62.268 27.048 60.528 26.928 58.728C26.832 56.904 26.712 55.128 26.568 53.4C26.448 51.672 26.316 50.112 26.172 48.72C26.052 47.328 25.932 46.224 25.812 45.408C25.692 44.568 25.584 44.148 25.488 44.148C25.464 44.148 25.332 44.58 25.092 45.444C24.876 46.284 24.6 47.412 24.264 48.828C23.952 50.244 23.604 51.804 23.22 53.508C22.836 55.212 22.452 56.928 22.068 58.656C21.708 60.36 21.384 61.944 21.096 63.408C20.808 64.848 20.58 66.024 20.412 66.936L14.76 67.08C14.472 65.736 14.124 64.26 13.716 62.652C13.332 61.02 12.924 59.364 12.492 57.684C12.084 55.98 11.676 54.348 11.268 52.788C10.86 51.204 10.476 49.788 10.116 48.54C9.78 47.292 9.504 46.308 9.288 45.588C9.072 44.844 8.94 44.472 8.892 44.472C8.796 44.472 8.688 45 8.568 46.056C8.472 47.088 8.376 48.492 8.28 50.268C8.184 52.044 8.1 54.048 8.028 56.28C7.98 58.512 7.956 60.816 7.956 63.192C7.956 64.32 7.956 65.352 7.956 66.288C7.98 67.224 8.004 67.992 8.028 68.592L1.692 68.628ZM45.052 68.952C43.516 68.952 42.244 68.676 41.236 68.124C40.252 67.596 39.46 66.864 38.86 65.928C38.284 64.992 37.852 63.948 37.564 62.796C37.3 61.62 37.12 60.408 37.024 59.16C36.952 57.888 36.916 56.664 36.916 55.488C36.916 54.144 36.952 52.776 37.024 51.384C37.12 49.992 37.216 48.468 37.312 46.812L43.9 46.416C43.828 46.92 43.72 47.676 43.576 48.684C43.432 49.692 43.3 50.844 43.18 52.14C43.06 53.436 43 54.792 43 56.208C43 58.536 43.204 60.264 43.612 61.392C44.02 62.496 44.632 63.048 45.448 63.048C47.08 63.048 48.28 61.86 49.048 59.484C49.816 57.108 50.2 53.352 50.2 48.216V46.56L53.26 46.488L56.968 46.416C56.632 48.672 56.38 50.748 56.212 52.644C56.044 54.54 55.936 56.136 55.888 57.432C55.84 58.704 55.816 59.556 55.816 59.988C55.816 61.092 55.912 61.884 56.104 62.364C56.296 62.82 56.632 63.048 57.112 63.048C57.352 63.048 57.616 63 57.904 62.904C58.192 62.808 58.528 62.64 58.912 62.4L58.66 68.592C57.748 68.736 56.956 68.808 56.284 68.808C55.132 68.808 54.184 68.592 53.44 68.16C52.72 67.728 52.144 67.152 51.712 66.432C50.968 67.224 50.044 67.836 48.94 68.268C47.86 68.724 46.564 68.952 45.052 68.952ZM61.7363 68.808C61.8323 66.816 61.9043 64.824 61.9523 62.832C62.0003 60.84 62.0243 58.872 62.0243 56.928C62.0003 55.152 61.9643 53.4 61.9163 51.672C61.8923 49.92 61.8323 48.228 61.7363 46.596L67.7843 46.416C67.8083 47.304 67.8443 48.216 67.8923 49.152C68.6603 48.192 69.5483 47.424 70.5563 46.848C71.5883 46.248 72.7643 45.948 74.0843 45.948C74.5883 45.948 75.2363 46.02 76.0283 46.164C76.8203 46.308 77.6243 46.584 78.4403 46.992L77.7563 53.076C77.1563 52.716 76.5083 52.464 75.8123 52.32C75.1403 52.152 74.5763 52.068 74.1203 52.068C72.5843 52.068 71.2763 52.764 70.1963 54.156C69.1403 55.524 68.4203 57.432 68.0363 59.88C68.0363 61.56 68.0123 63.168 67.9643 64.704C67.9403 66.216 67.8803 67.584 67.7843 68.808H61.7363ZM79.8795 68.628C79.8075 66.252 79.7715 63.972 79.7715 61.788C79.7715 57.852 79.8915 54.288 80.1315 51.096C80.3715 47.904 80.7195 45.192 81.1755 42.96C81.3915 41.928 81.6915 40.932 82.0755 39.972C82.4835 39.012 83.0475 38.232 83.7675 37.632C84.5115 37.008 85.4835 36.696 86.6835 36.696C87.8595 36.696 88.8555 37.008 89.6715 37.632C90.4875 38.232 91.1475 38.964 91.6515 39.828C92.1795 40.692 92.5635 41.52 92.8035 42.312C93.4275 44.184 93.9555 46.056 94.3875 47.928C94.8195 49.8 95.2035 51.588 95.5395 53.292C95.7795 52.044 96.0555 50.736 96.3675 49.368C96.6795 47.976 96.9915 46.668 97.3035 45.444C97.6155 44.196 97.9035 43.164 98.1675 42.348C99.3915 38.58 101.276 36.696 103.82 36.696C105.236 36.696 106.436 37.212 107.42 38.244C108.404 39.252 109.124 40.716 109.58 42.636C109.796 43.5 110.012 44.76 110.228 46.416C110.468 48.072 110.684 50.04 110.876 52.32C111.092 54.576 111.272 57.072 111.416 59.808C111.584 62.544 111.716 65.448 111.812 68.52L105.476 68.376C105.476 67.104 105.44 65.628 105.368 63.948C105.32 62.268 105.236 60.528 105.116 58.728C105.02 56.904 104.9 55.128 104.756 53.4C104.636 51.672 104.504 50.112 104.36 48.72C104.24 47.328 104.12 46.224 104 45.408C103.88 44.568 103.772 44.148 103.676 44.148C103.652 44.148 103.52 44.58 103.28 45.444C103.064 46.284 102.788 47.412 102.452 48.828C102.14 50.244 101.792 51.804 101.408 53.508C101.024 55.212 100.64 56.928 100.256 58.656C99.8955 60.36 99.5715 61.944 99.2835 63.408C98.9955 64.848 98.7675 66.024 98.5995 66.936L92.9475 67.08C92.6595 65.736 92.3115 64.26 91.9035 62.652C91.5195 61.02 91.1115 59.364 90.6795 57.684C90.2715 55.98 89.8635 54.348 89.4555 52.788C89.0475 51.204 88.6635 49.788 88.3035 48.54C87.9675 47.292 87.6915 46.308 87.4755 45.588C87.2595 44.844 87.1275 44.472 87.0795 44.472C86.9835 44.472 86.8755 45 86.7555 46.056C86.6595 47.088 86.5635 48.492 86.4675 50.268C86.3715 52.044 86.2875 54.048 86.2155 56.28C86.1675 58.512 86.1435 60.816 86.1435 63.192C86.1435 64.32 86.1435 65.352 86.1435 66.288C86.1675 67.224 86.1915 67.992 86.2155 68.592L79.8795 68.628ZM123.24 68.952C121.704 68.952 120.432 68.676 119.424 68.124C118.44 67.596 117.648 66.864 117.048 65.928C116.472 64.992 116.04 63.948 115.752 62.796C115.488 61.62 115.308 60.408 115.212 59.16C115.14 57.888 115.104 56.664 115.104 55.488C115.104 54.144 115.14 52.776 115.212 51.384C115.308 49.992 115.404 48.468 115.5 46.812L122.088 46.416C122.016 46.92 121.908 47.676 121.764 48.684C121.62 49.692 121.488 50.844 121.368 52.14C121.248 53.436 121.188 54.792 121.188 56.208C121.188 58.536 121.392 60.264 121.8 61.392C122.208 62.496 122.82 63.048 123.636 63.048C125.268 63.048 126.468 61.86 127.236 59.484C128.004 57.108 128.388 53.352 128.388 48.216V46.56L131.448 46.488L135.156 46.416C134.82 48.672 134.568 50.748 134.4 52.644C134.232 54.54 134.124 56.136 134.076 57.432C134.028 58.704 134.004 59.556 134.004 59.988C134.004 61.092 134.1 61.884 134.292 62.364C134.484 62.82 134.82 63.048 135.3 63.048C135.54 63.048 135.804 63 136.092 62.904C136.38 62.808 136.716 62.64 137.1 62.4L136.848 68.592C135.936 68.736 135.144 68.808 134.472 68.808C133.32 68.808 132.372 68.592 131.628 68.16C130.908 67.728 130.332 67.152 129.9 66.432C129.156 67.224 128.232 67.836 127.128 68.268C126.048 68.724 124.752 68.952 123.24 68.952ZM139.924 68.808C140.02 66.816 140.092 64.824 140.14 62.832C140.188 60.84 140.212 58.872 140.212 56.928C140.188 55.152 140.152 53.4 140.104 51.672C140.08 49.92 140.02 48.228 139.924 46.596L145.972 46.416C145.996 47.304 146.032 48.216 146.08 49.152C146.848 48.192 147.736 47.424 148.744 46.848C149.776 46.248 150.952 45.948 152.272 45.948C152.776 45.948 153.424 46.02 154.216 46.164C155.008 46.308 155.812 46.584 156.628 46.992L155.944 53.076C155.344 52.716 154.696 52.464 154 52.32C153.328 52.152 152.764 52.068 152.308 52.068C150.772 52.068 149.464 52.764 148.384 54.156C147.328 55.524 146.608 57.432 146.224 59.88C146.224 61.56 146.2 63.168 146.152 64.704C146.128 66.216 146.068 67.584 145.972 68.808H139.924Z" fill="white"/>
<g clip-path="url(#clip0_1_238)">
<path d="M148.256 49.233C153.022 51.023 156.498 49.7502 158.684 45.4146C161.962 38.9112 147.324 30.5442 151.242 22.7721C154.512 16.2858 162.523 18.7118 163.416 19.1623" stroke="white" stroke-width="2.56" stroke-linecap="round" stroke-linejoin="round"/>
</g>
<path d="M42.0676 21.7525C35.5423 16.8931 41.4149 10.0436 45.5268 17.4992" stroke="white" stroke-opacity="0.9" stroke-width="2.56" stroke-linecap="round" stroke-linejoin="round"/>
<path d="M66.9711 17.89C70.523 12.723 78.335 13.778 73.127 20.7656" stroke="white" stroke-opacity="0.9" stroke-width="2.56" stroke-linecap="round" stroke-linejoin="round"/>
<path d="M51.1483 21.2054C51.0575 20.4164 51.4889 19.6775 51.7053 18.9884" stroke="white" stroke-opacity="0.9" stroke-width="2.56" stroke-linecap="round" stroke-linejoin="round"/>
<path d="M56.3548 22.4037C56.4812 21.0666 56.6286 19.7271 56.8565 18.4224" stroke="white" stroke-opacity="0.9" stroke-width="2.56" stroke-linecap="round" stroke-linejoin="round"/>
<path d="M61.8328 21.6923C61.8644 20.9988 61.896 20.3064 61.9275 19.6145" stroke="white" stroke-opacity="0.9" stroke-width="2.56" stroke-linecap="round" stroke-linejoin="round"/>
<path d="M49.3791 31.3754C50.5887 31.0965 51.86 31.0116 53.0844 30.9036" stroke="white" stroke-opacity="0.9" stroke-width="2.56" stroke-linecap="round" stroke-linejoin="round"/>
<path d="M60.9161 31.2605C62.1894 31.0664 63.3663 31.201 64.5922 31.4281" stroke="white" stroke-opacity="0.9" stroke-width="2.56" stroke-linecap="round" stroke-linejoin="round"/>
<path d="M54.7329 36.9057C60.2131 34.3905 59.3595 38.4935 55.2557 37.6598" stroke="white" stroke-opacity="0.9" stroke-width="2.56" stroke-linecap="round" stroke-linejoin="round"/>
<path d="M56.7305 38.7577C56.2643 42.149 53.5205 42.3233 51.1742 41.1847" stroke="white" stroke-opacity="0.9" stroke-width="2.56" stroke-linecap="round" stroke-linejoin="round"/>
<path d="M56.5773 38.7508C56.183 43.2653 60.1649 42.7592 62.4088 40.6834" stroke="white" stroke-opacity="0.9" stroke-width="2.56" stroke-linecap="round" stroke-linejoin="round"/>
<path d="M42.5202 34.2661C40.2096 33.3965 37.7318 33.2414 35.3787 32.8195" stroke="white" stroke-opacity="0.9" stroke-width="2.56" stroke-linecap="round" stroke-linejoin="round"/>
<path d="M43.1447 38.1386C40.5384 38.6297 37.9398 38.9828 35.3852 39.7069" stroke="white" stroke-opacity="0.9" stroke-width="2.56" stroke-linecap="round" stroke-linejoin="round"/>
<path d="M71.6828 33.9935C73.5432 33.5914 75.3629 32.9792 77.1973 32.483" stroke="white" stroke-opacity="0.9" stroke-width="2.56" stroke-linecap="round" stroke-linejoin="round"/>
<path d="M72.1182 38.498C74.0243 38.3442 76.1432 38.5256 77.8764 38.669" stroke="white" stroke-opacity="0.9" stroke-width="2.56" stroke-linecap="round" stroke-linejoin="round"/>
<defs>
<clipPath id="clip0_1_238">
<rect width="64" height="64" fill="white" transform="translate(100)"/>
</clipPath>
</defs>
</svg>
